<svg width="800" height="800" viewBox="0 0 800 800" xmlns="http://www.w3.org/2000/svg">
  <path fill-opacity="0.05" fill="#5E81AC" d="M400 142.8c-45.2 0-87.6 17.8-119.4 50.2-32.4 32.8-50.2 76.5-50.2 122.9 0 14.1 1.8 28.1 5.3 41.6-14 8.3-26.2 19.7-35.7 33.7-11.9 17.6-18.2 38.3-18.2 59.8 0 29.1 11.7 56.5 32.9 76.9 16.4 15.8 37.1 26.1 59.8 29.6-1.3 8.1-2 16.4-2 24.6 0 43 17.8 81.8 46.3 109.6 28.1 27.4 66.1 44.2 108 44.2 41.8 0 79.9-16.8 107.9-44.2 28.5-27.8 46.3-66.6 46.3-109.6 0-8.2-0.7-16.5-2-24.6 22.7-3.5 43.4-13.8 59.8-29.6 21.2-20.4 33-47.8 33-76.9 0-21.5-6.3-42.2-18.2-59.8-9.5-14-21.7-25.4-35.7-33.7 3.5-13.5 5.3-27.5 5.3-41.6 0-46.4-17.8-90.1-50.2-122.9-31.9-32.4-74.3-50.2-119.4-50.2zm0 30c37.8 0 73.3 14.9 99.5 42.2 26.7 27.1 41.8 63.8 41.8 101.7 0 15.9-2.5 31-7.5 45.2l-3.5 10.2 9.9 4.2c13.5 5.6 25.5 14.5 34.6 25.9 9.2 11.5 15.9 25.7 19.2 41.1-13.9-5.8-29-9-44.8-9-21.4 0-41.5 5.6-58.8 15.3-19.2-30.6-52.8-51-91.1-51-38.3 0-71.9 20.4-91.1 51-17.3-9.7-37.4-15.3-58.8-15.3-15.8 0-30.9 3.2-44.8 9 3.3-15.4 9.9-29.6 19.2-41.1 9.1-11.4 21-20.3 34.6-25.9l9.9-4.2-3.5-10.2c-5-14.2-7.5-29.3-7.5-45.2 0-37.9 15.1-74.6 41.8-101.7 26.2-27.3 61.7-42.2 99.5-42.2zm-70.3 321.8c10.1 7.3 18.6 16.9 24.4 28.3-18.1 13.9-29.8 35.6-29.8 60.1 0 26.8 14 50.4 35.1 63.8-4.8 9.6-7.3 20.3-7.3 31.5 0 39.2 31.9 71.1 71.1 71.1 29.2 0 54.4-17.7 65.4-43-1.6 7.7-2.4 15.6-2.4 23.8 0 34.7 14.7 66 38.2 88.2-21.3 15.8-47.6 25.1-75.9 25.1-36.4 0-69.3-14.9-93.2-38.7-24-23.8-38.9-56.9-38.9-93.5 0-10.4 1.2-20.7 3.5-30.5l3-12.4-12.7-1.6c-19.9-2.5-38.4-11.9-51.9-26.5-13.5-14.6-20.9-33.4-20.9-53.3 0-15.2 4.3-30 12.5-42.8 6.1-9.7 14.3-17.8 23.9-23.8 16.6-10.5 36.7-14.2 56.1-9.8zm140.5 0c19.4-4.4 39.5-0.7 56.2 9.8 9.5 6 17.7 14.1 23.9 23.8 8.2 12.8 12.5 27.6 12.5 42.8 0 19.9-7.4 38.7-20.9 53.3-13.5 14.6-32 24-51.8 26.5l-12.7 1.6 3 12.4c2.3 9.8 3.5 20.1 3.5 30.5 0 36.6-14.9 69.7-38.9 93.5-23.9 23.8-56.9 38.7-93.2 38.7-28.3 0-54.7-9.3-76-25.1 23.5-22.2 38.2-53.5 38.2-88.2 0-8.2-0.8-16.1-2.4-23.8 11 25.3 36.2 43 65.4 43 39.2 0 71.1-31.9 71.1-71.1 0-11.2-2.5-21.9-7.3-31.5 21.1-13.4 35.1-37 35.1-63.8 0-24.5-11.7-46.2-29.7-60.1 5.8-11.4 14.3-21 24.4-28.3z"/>
</svg>
