<svg width="800" height="800" viewBox="0 0 800 800" xmlns="http://www.w3.org/2000/svg">
  <path fill-opacity="0.08" fill="#E87A41" d="M417.7 154.4c-35.8 0-70.3 15.4-94.2 42.3-6.4 7.1-11.7 14.9-16 23.1-4.3-1.2-8.8-1.8-13.3-1.8-13.4 0-26 5.2-35.5 14.7-9.5 9.5-14.7 22.1-14.7 35.5 0 4 0.5 7.9 1.4 11.7-33.1 19.4-55.2 55.5-55.2 96.8 0 10.9 1.6 21.3 4.5 31.2-21.5 13.7-35.8 37.7-35.8 65.1 0 19.9 7.6 38 20 51.5-8.6 11.9-13.7 26.6-13.7 42.4 0 39.9 32.4 72.3 72.3 72.3 3.1 0 6.2-0.2 9.2-0.6 14.1 36.5 49.7 62.4 91.3 62.4 21.3 0 41.1-6.8 57.3-18.4 16.1 11.6 36 18.4 57.3 18.4 41.7 0 77.2-25.9 91.3-62.4 3 0.4 6.1 0.6 9.2 0.6 39.9 0 72.3-32.4 72.3-72.3 0-15.9-5.1-30.5-13.7-42.4 12.4-13.5 20-31.6 20-51.5 0-27.4-14.3-51.4-35.8-65.1 3-9.9 4.5-20.3 4.5-31.2 0-41.3-22.2-77.4-55.2-96.8 0.9-3.8 1.4-7.7 1.4-11.7 0-13.4-5.2-26-14.7-35.5-9.5-9.5-22.1-14.7-35.5-14.7-4.5 0-9 0.6-13.3 1.8-4.3-8.2-9.7-16-16-23.1-23.9-26.9-58.4-42.3-94.2-42.3zm0 33.7c26.4 0-51.8 11.3-70.2 31.8-14.8 16.7-23 38.7-23 61.7 0 13.3 3.8 25.8 9.2 37-16.2 9.4-30.3 22.1-41.1 37.1-13.8 19.1-22 42.3-22 67.3 0 14.4 2.7 28.3 7.6 41.2l2.7 7.1-7.3 2.2c-8.4 2.5-16 6.8-22.3 12.5-6.8 6.1-12.3 13.7-15.6 22.2-3.4 8.9-4.4 18.5-3 27.8 1.4 9.3 5.2 18.1 10.9 25.5 5.7 7.3 13.2 13.1 21.7 16.8 7.6 3.3 15.8 4.9 24 4.9 4 0 8-0.4 12-1.3l6.9-1.6 2.4 6.7c5.4 14.9 15 27.8 27.5 37 12.5 9.3 27.6 14.7 43.5 14.7 19.4 0 37.2-7.5 50.4-19.9l7.9-7.4 7.9 7.4c13.2 12.4 31 19.9 50.4 19.9 15.9 0 31-5.4 43.5-14.7 12.5-9.3 22.1-22.2 27.5-37l2.4-6.7 6.9 1.6c4 0.9 8 1.3 12 1.3 8.2 0 16.4-1.6 24-4.9 8.5-3.7 16-9.5 21.7-16.8 5.7-7.4 9.5-16.2 10.9-25.5 1.4-9.3 0.4-18.9-3-27.8-3.3-8.5-8.8-16.1-15.6-22.2-6.3-5.7-13.9-10-22.3-12.5l-7.3-2.2 2.7-7.1c4.9-12.9 7.6-26.8 7.6-41.2 0-25-8.2-48.2-22-67.3-10.9-15.1-24.9-27.7-41.1-37.1 5.4-11.2 9.2-23.7 9.2-37 0-23-8.2-45-23-61.7-18.4-20.5-43.8-31.8-70.2-31.8 0 0-51.8 0-51.8 0zm-173.1 138.8c5.9-1.1 11.8-1.7 17.9-1.7 32.1 0 60.8 15.8 78.3 40.2l4.5 6.2 6.7-3.6c9.5-5.1 20.4-8 32-8 37.7 0 68.4 30.7 68.4 68.4 0 26.5-15.1 49.4-37.2 60.8l-6.1 3.1 1.4 6.8c1.6 7.7 2.5 15.7 2.5 24 0 13.3-2.2 26.2-6.2 38.1-4.9-29.5-30.6-52.1-61.4-52.1-20.1 0-38.1 9.5-49.5 24.3-8.3-4.5-17.8-7-27.9-7-32.6 0-59.1 26.5-59.1 59.1 0 4.7 0.5 9.2 1.6 13.6-17.1-7.6-29-24.8-29-44.8 0-10 3-19.3 8.2-27l3.6-5.4-5-4.1c-10.9-8.9-17.8-22.3-17.8-37.3 0-3.2 0.3-6.3 0.9-9.4 14.9 15.5 35.9 25.2 59.1 25.2 6.9 0 13.5-0.8 19.9-2.4-3.4 8.3-5.3 17.4-5.3 26.8 0 39.1 31.8 70.9 71 70.9 18.6 0 35.6-7.2 48.2-18.9 12.6 11.7 29.6 18.9 48.2 18.9 39.2 0 71-31.8 71-70.9 0-9.4-1.9-18.5-5.3-26.8 6.4 1.6 13 2.4 19.9 2.4 23.2 0 44.2-9.7 59.1-25.2 0.6 3.1 0.9 6.2 0.9 9.4 0 15-6.9 28.4-17.8 37.3l-5 4.1 3.6 5.4c5.2 7.7 8.2 17 8.2 27 0 20-11.9 37.2-29 44.8 1.1-4.4 1.6-8.9 1.6-13.6 0-32.6-26.5-59.1-59.1-59.1-10.1 0-19.6 2.5-27.9 7-11.4-14.8-29.4-24.3-49.5-24.3-30.8 0-56.5 22.6-61.4 52.1-4-11.9-6.2-24.8-6.2-38.1 0-8.3 0.9-16.3 2.5-24l1.4-6.8-6.1-3.1c-22.1-11.4-37.2-34.3-37.2-60.8 0-37.7 30.7-68.4 68.4-68.4 11.6 0 22.5 2.9 32 8l6.7 3.6 4.5-6.2c17.5-24.4 46.2-40.2 78.3-40.2 6.1 0 12 0.6 17.9 1.7 3.8 11.2 5.9 23.2 5.9 35.8 0 23.3-7.2 44.9-19.4 62.7-8.9-2.7-18.3-4.2-28-4.2-30.4 0-57.7 13.9-75.7 35.8-8-2.5-16.5-3.9-25.3-3.9-11.8 0-23 2.4-33.2 6.6-3.4-9.5-5.2-19.7-5.2-30.3 0-12.6 2.1-24.6 5.9-35.8zM403 474.6c10.6 0 20.1 5.1 26.1 13-8.9 17-26.6 28.7-47.1 28.7-29.3 0-53-23.7-53-53 0-7.2 1.4-14.1 4.1-20.3 11 19 31.8 31.6 55.9 31.6 8.2 0 16.1-1.6 23.3-4.4 3.4 4.5 7.9 7.9 13.2 9.5-9.2 5.6-15.3 15.7-15.3 27.2 0 7 2.2 13.4 6 18.7-4.1-1.1-8.5-1.7-13-1.7-24.8 0-45 20.1-45.1 44.9-7.9-7.4-12.9-17.9-12.9-29.5 0-7 1.8-13.5 4.9-19.2 3-5.4 7.2-10 12.3-13.5 4.7-3.2 10.1-5.5 15.9-6.5 1.7-0.3 3.5-0.5 5.3-0.5 2.6 0 5.2 0.3 7.6 0.9l11.8 3zm64.2 0l11.8-3c2.4-0.6 5-0.9 7.6-0.9 1.8 0 3.6 0.2 5.3 0.5 5.8 1 11.2 3.3 15.9 6.5 5.1 3.5 9.3 8.1 12.3 13.5 3.1 5.7 4.9 12.2 4.9 19.2 0 11.6-5 22.1-12.9 29.5-0.1-24.8-20.3-44.9-45.1-44.9-4.5 0-8.9 0.6-13 1.7 3.8-5.3 6-11.7 6-18.7 0-11.5-6.1-21.6-15.3-27.2 5.3-1.6 9.8-5 13.2-9.5 7.2 2.8 15.1 4.4 23.3 4.4 24.1 0 44.9-12.6 55.9-31.6 2.7 6.2 4.1 13.1 4.1 20.3 0 29.3-23.7 53-53 53-20.5 0-38.2-11.7-47.1-28.7 6-7.9 15.5-13 26.1-13z"/>
</svg>
